{"title":"Lost.Time.2014.HDRip.XviD.Ac3.Feel-Free","uid":11095182,"size":771353609,"categoryP":"video","categoryS":"movies","magnet":"?xt=urn:btih:3072e1080a1740c2129515aff56450d56a6273ff&amp;dn=Lost.Time.2014.HDRip.XviD.Ac3.Feel-Free&amp;tr=udp%3A%2F%2Ftracker.openbittorrent.com%3A80&amp;tr=udp%3A%2F%2Fopen.demonii.com%3A1337&amp;tr=udp%3A%2F%2Ftracker.coppersurfer.tk%3A6969&amp;tr=udp%3A%2F%2Fexodus.desync.com%3A6969","seeders":0,"leechers":1,"uploader":"SaM","files":7,"time":1411583712,"description":"Genre:Horror,Sci-Fi,Thriller\nLanguage:English\nIMDb:http://www.imdb.com/title/tt2564978/\nSource:WEB-DL 720p Thanks\nSample:Never\nEncoder:Tony\n\n\nFormat : AVI\nFormat/Info : Audio Video Interleave\nFile size : 735 MiB\nDuration : 1h 32mn\nOverall bit rate : 1 109 Kbps\nWriting application : VirtualDubMod 1.5.10.2 (build 2540/release)\nWriting library : VirtualDubMod build 2540/release\n\nVideo\nID : 0\nFormat : MPEG-4 Visual\nFormat profile : Advanced Simple@L5\nFormat settings, BVOP : 1\nFormat settings, QPel : No\nFormat settings, GMC : No warppoints\nFormat settings, Matrix : Default (H.263)\nCodec ID : XVID\nCodec ID/Hint : XviD\nDuration : 1h 32mn\nBit rate : 715 Kbps\nWidth : 640 pixels\nHeight : 272 pixels\nDisplay aspect ratio : 2.35:1\nFrame rate : 23.976 fps\nColor space : YUV\nChroma subsampling : 4:2:0\nBit depth : 8 bits\nScan type : Progressive\nCompression mode : Lossy\nBits/(Pixel*Frame) : 0.171\nStream size : 474 MiB (65%)\nWriting library : XviD 1.2.1 (UTC 2008-12-04)\n\nAudio\nID : 1\nFormat : AC-3\nFormat/Info : Audio Coding 3\nMode extension : CM (complete main)\nCodec ID : 2000\nDuration : 1h 32mn\nBit rate mode : Constant\nBit rate : 384 Kbps\nChannel(s) : 6 channels\nChannel positions : Front: L C R, Side: L R, LFE\nSampling rate : 48.0 KHz\nBit depth : 16 bits\nCompression mode : Lossy\nStream size : 255 MiB (35%)\nAlignment : Aligned on interleaves\nInterleave, duration : 42 ms (1.00 video frame)\nInterleave, preload duration : 512 ms\n &lt;a href=&quot;\nhttp://s17.postimg.org/o9krxrq4f/vlcsnap_2014_09_20_20h14m05s193.png&quot; rel=&quot;nofollow&quot; target=&quot;_NEW&quot;&gt;\nhttp://s17.postimg.org/o9krxrq4f/vlcsnap_2014_09_20_20h14m05s193.png&lt;/a&gt;\n &lt;a href=&quot;\nhttp://s4.postimg.org/kel4u4j2l/vlcsnap_2014_09_20_20h17m31s212.png&quot; rel=&quot;nofollow&quot; target=&quot;_NEW&quot;&gt;\nhttp://s4.postimg.org/kel4u4j2l/vlcsnap_2014_09_20_20h17m31s212.png&lt;/a&gt;\n\nGreets:\nCRYS,INSPiRAL,IMAGINE,LKRG,ADTRG,FXG,3Li,FLAWL3SS,CrEwSaDe,TA,iLLUSiON,EMBER,HOPE,GooN,BBnRG,NOGRP,ETRG,BHRG,iLLUMiNATi,MiSTERE.ViSiON,DTRG SAFCuk009,LU,TheFalcon007,MYSTiC,PrisM,Noir,WBZ,LAP,Rx,Kingdom,SAFCuk009+Fabreezy,HDLiTE,TWiZTED,ETRG.ELEKTRI4KA,MAGNAT,CM8\nAnd to all the other p2p grps past and present\n\n\nMake sure its a real Feel-Free release @ http://extratorrent.com/\n\nThanks to all who promotes release Feel-Free !!!","torrent":{"xt":"urn:btih:3072e1080a1740c2129515aff56450d56a6273ff","amp;dn":"Lost.Time.2014.HDRip.XviD.Ac3.Feel-Free","amp;tr":["udp%3A%2F%2Ftracker.openbittorrent.com%3A80","udp%3A%2F%2Fopen.demonii.com%3A1337","udp%3A%2F%2Ftracker.coppersurfer.tk%3A6969","udp%3A%2F%2Fexodus.desync.com%3A6969"],"infoHash":"3072e1080a1740c2129515aff56450d56a6273ff","infoHashBuffer":{"type":"Buffer","data":[48,114,225,8,10,23,64,194,18,149,21,175,245,100,80,213,106,98,115,255]},"announce":[],"urlList":[]}}